<svg width="19" height="18" viewBox="0 0 19 18" fill="none" xmlns="http://www.w3.org/2000/svg">
<g id="copyright_24dp_5F6368_FILL0_wght300_GRAD0_opsz24 1">
<path id="Vector" d="M8.11533 11.7002H10.9953C11.1483 11.7002 11.2766 11.6484 11.38 11.5448C11.4836 11.4414 11.5353 11.3132 11.5353 11.1602V9.90016H10.4553V10.6202H8.65533V7.38016H10.4553V8.10016H11.5353V6.83998C11.5353 6.68686 11.4836 6.55864 11.38 6.45532C11.2766 6.35188 11.1483 6.30016 10.9953 6.30016H8.11533C7.96233 6.30016 7.83411 6.35194 7.73067 6.4555C7.62711 6.55894 7.57533 6.68716 7.57533 6.84016V11.1602C7.57533 11.3132 7.62711 11.4414 7.73067 11.5448C7.83411 11.6484 7.96233 11.7002 8.11533 11.7002ZM9.55659 15.8402C8.61051 15.8402 7.72125 15.6606 6.88881 15.3016C6.05637 14.9426 5.33229 14.4553 4.71657 13.8398C4.10085 13.2243 3.61335 12.5006 3.25407 11.6685C2.89491 10.8364 2.71533 9.94738 2.71533 9.00142C2.71533 8.05534 2.89485 7.16608 3.25389 6.33364C3.61293 5.5012 4.10019 4.77712 4.71567 4.1614C5.33115 3.54568 6.05493 3.05818 6.88701 2.6989C7.71909 2.33974 8.60811 2.16016 9.55407 2.16016C10.5002 2.16016 11.3894 2.33968 12.2219 2.69872C13.0543 3.05776 13.7784 3.54502 14.3941 4.1605C15.0098 4.77598 15.4973 5.49976 15.8566 6.33184C16.2158 7.16392 16.3953 8.05294 16.3953 8.9989C16.3953 9.94498 16.2158 10.8342 15.8568 11.6667C15.4977 12.4991 15.0105 13.2232 14.395 13.8389C13.7795 14.4546 13.0557 14.9421 12.2237 15.3014C11.3916 15.6606 10.5026 15.8402 9.55659 15.8402ZM9.55533 14.7602C11.1633 14.7602 12.5253 14.2022 13.6413 13.0862C14.7573 11.9702 15.3153 10.6082 15.3153 9.00016C15.3153 7.39216 14.7573 6.03016 13.6413 4.91416C12.5253 3.79816 11.1633 3.24016 9.55533 3.24016C7.94733 3.24016 6.58533 3.79816 5.46933 4.91416C4.35333 6.03016 3.79533 7.39216 3.79533 9.00016C3.79533 10.6082 4.35333 11.9702 5.46933 13.0862C6.58533 14.2022 7.94733 14.7602 9.55533 14.7602Z" fill="white"/>
</g>
</svg>
