<svg width="185" height="105" viewBox="0 0 185 105" fill="none" xmlns="http://www.w3.org/2000/svg">
<g id="Frame 167">
<g id="Layer 1">
<g id="Group">
<path id="Vector" d="M164.672 104.112L184.257 83.05V82.7568C184.315 79.6725 183.337 77.5438 181.357 76.4325C179.203 75.227 176.814 74.5572 174.258 74.4342C174.055 74.4269 173.853 74.4197 173.65 74.4197C171.423 74.4197 169.508 74.9917 167.796 76.1646C165.95 77.4316 164.44 79.7485 163.322 83.0392L155.922 100.434L164.668 104.112H164.672Z" fill="#87B79D"/>
<path id="Vector_2" d="M155.4 42.5181C152.095 37.1857 147.588 32.8813 141.995 29.7065C136.402 26.5353 129.991 24.9279 122.928 24.9279C115.865 24.9279 109.562 26.5353 103.929 29.7101C98.2893 32.8813 93.7569 37.1857 90.4553 42.5145C89.5358 43.9951 88.7503 45.5337 88.0914 47.1301C88.0624 47.1084 88.0516 47.0975 88.0516 47.0975C88.0516 47.0975 84.6269 52.9766 78.7117 59.4603C77.6111 55.5578 75.6309 52.2309 72.7855 49.523C68.0938 45.0558 59.992 41.7905 48.6791 39.8356L34.9879 37.3703C30.3143 36.5123 27.0815 35.448 25.1013 34.1086C22.9437 32.6569 21.8504 30.655 21.8504 28.1462C21.8504 21.3838 27.5413 17.952 38.7564 17.952C42.7421 17.952 46.8075 18.3936 50.8476 19.2805C54.8732 20.1602 58.5838 21.3331 61.8745 22.7703C64.8032 24.0519 67.149 25.4854 68.8541 27.0457C70.4723 25.8112 71.9058 24.1025 73.1258 21.9594C74.5232 19.505 75.2363 17.2135 75.2363 15.1427C75.2363 11.9027 73.267 9.14058 69.2342 6.70062C65.9833 4.7711 61.5197 3.20359 55.9737 2.05239C50.3697 0.88671 44.487 0.296631 38.4849 0.296631C26.7593 0.296631 17.4411 2.93208 10.8018 8.12333C4.24217 13.2494 0.915283 20.4498 0.915283 29.5146C0.915283 43.9625 10.581 52.7232 30.4772 56.2926L44.154 58.7543C49.0122 59.6123 52.4043 60.7164 54.5293 62.1536C56.8244 63.703 57.9829 65.886 57.9829 68.659C57.9829 72.2176 56.4407 74.824 53.3853 76.4024C50.5435 77.8722 46.203 78.5853 40.1212 78.5853C36.5047 78.5853 32.4031 78.1618 27.9322 77.3328C23.4686 76.5038 19.2222 75.3815 15.3016 73.9987C12.7676 73.1045 10.5629 72.1814 8.71302 71.2329C6.57715 74.7408 4.03583 80.8371 0.984065 87.9072C2.08458 88.5009 3.36972 89.0946 4.83225 89.6846C8.04692 90.977 11.7612 92.1825 15.8483 93.2613C19.939 94.3365 24.1492 95.2089 28.3811 95.8352C32.6058 96.4651 36.4612 96.7837 39.8461 96.7837C49.2656 96.7837 57.2081 95.2994 63.547 92.349C63.547 92.349 63.5759 92.3382 63.6339 92.3165C64.8357 91.8278 78.1505 86.2202 88.6489 75.2331C89.1774 76.3807 89.7784 77.4957 90.4481 78.5817C93.7496 83.954 98.282 88.2837 103.922 91.4585C109.555 94.6297 115.945 96.2371 122.921 96.2371C129.897 96.2371 136.395 94.6297 141.988 91.4585C147.581 88.2837 152.091 83.954 155.393 78.5817C158.684 73.2348 160.349 67.1747 160.349 60.5789C160.349 53.983 158.684 47.8216 155.393 42.5145M135.28 73.6294C132.054 77.1011 127.898 78.8605 122.928 78.8605C117.957 78.8605 113.805 77.1011 110.576 73.6294C107.372 70.1794 105.747 65.7955 105.747 60.5861C105.747 55.3768 107.372 50.9928 110.576 47.5428C113.801 44.0784 117.957 42.3117 122.928 42.3117C127.898 42.3117 132.051 44.0747 135.28 47.5428C138.483 50.9928 140.109 55.3768 140.109 60.5861C140.109 65.7955 138.483 70.1831 135.28 73.6294Z" fill="#87B79D"/>
</g>
</g>
</g>
</svg>
