<svg width="21" height="20" viewBox="0 0 21 20" fill="none" xmlns="http://www.w3.org/2000/svg">
<g id="instagram">
<path id="Vector" d="M14.5346 4.54984C14.3368 4.54984 14.1434 4.60849 13.979 4.71837C13.8145 4.82825 13.6864 4.98443 13.6107 5.16715C13.535 5.34988 13.5152 5.55095 13.5538 5.74493C13.5924 5.93891 13.6876 6.11709 13.8274 6.25694C13.9673 6.3968 14.1455 6.49204 14.3395 6.53062C14.5334 6.56921 14.7345 6.5494 14.9172 6.47372C15.1 6.39803 15.2561 6.26986 15.366 6.10541C15.4759 5.94096 15.5346 5.74762 15.5346 5.54984C15.5346 5.28462 15.4292 5.03027 15.2417 4.84273C15.0541 4.65519 14.7998 4.54984 14.5346 4.54984ZM18.3679 6.5665C18.3517 5.87509 18.2222 5.19101 17.9846 4.5415C17.7727 3.98578 17.4429 3.48257 17.0179 3.0665C16.6052 2.63936 16.1009 2.31165 15.5429 2.10817C14.8951 1.8633 14.2103 1.73085 13.5179 1.7165C12.6346 1.6665 12.3512 1.6665 10.0846 1.6665C7.81789 1.6665 7.53455 1.6665 6.65122 1.7165C5.95885 1.73085 5.27401 1.8633 4.62622 2.10817C4.06928 2.31371 3.56533 2.64114 3.15122 3.0665C2.72408 3.47915 2.39637 3.98354 2.19289 4.5415C1.94802 5.18929 1.81556 5.87413 1.80122 6.5665C1.75122 7.44984 1.75122 7.73317 1.75122 9.99984C1.75122 12.2665 1.75122 12.5498 1.80122 13.4332C1.81556 14.1255 1.94802 14.8104 2.19289 15.4582C2.39637 16.0161 2.72408 16.5205 3.15122 16.9332C3.56533 17.3585 4.06928 17.686 4.62622 17.8915C5.27401 18.1364 5.95885 18.2688 6.65122 18.2832C7.53455 18.3332 7.81789 18.3332 10.0846 18.3332C12.3512 18.3332 12.6346 18.3332 13.5179 18.2832C14.2103 18.2688 14.8951 18.1364 15.5429 17.8915C16.1009 17.688 16.6052 17.3603 17.0179 16.9332C17.4448 16.5187 17.7748 16.015 17.9846 15.4582C18.2222 14.8087 18.3517 14.1246 18.3679 13.4332C18.3679 12.5498 18.4179 12.2665 18.4179 9.99984C18.4179 7.73317 18.4179 7.44984 18.3679 6.5665ZM16.8679 13.3332C16.8618 13.8621 16.766 14.3863 16.5846 14.8832C16.4515 15.2458 16.2378 15.5735 15.9596 15.8415C15.6893 16.1169 15.3622 16.3302 15.0012 16.4665C14.5043 16.648 13.9802 16.7438 13.4512 16.7498C12.6179 16.7915 12.3096 16.7998 10.1179 16.7998C7.92622 16.7998 7.61789 16.7998 6.78455 16.7498C6.2353 16.7601 5.68838 16.6755 5.16789 16.4998C4.8227 16.3566 4.51068 16.1438 4.25122 15.8748C3.97463 15.6071 3.76359 15.2792 3.63455 14.9165C3.4311 14.4125 3.31826 13.8765 3.30122 13.3332C3.30122 12.4998 3.25122 12.1915 3.25122 9.99984C3.25122 7.80817 3.25122 7.49984 3.30122 6.6665C3.30496 6.12572 3.40368 5.58979 3.59289 5.08317C3.73959 4.73143 3.96477 4.41789 4.25122 4.1665C4.5044 3.87998 4.81729 3.65242 5.16789 3.49984C5.67585 3.31654 6.21122 3.22074 6.75122 3.2165C7.58455 3.2165 7.89289 3.1665 10.0846 3.1665C12.2762 3.1665 12.5846 3.1665 13.4179 3.2165C13.9469 3.22257 14.471 3.31838 14.9679 3.49984C15.3466 3.64038 15.6865 3.86888 15.9596 4.1665C16.2326 4.42249 16.446 4.73545 16.5846 5.08317C16.7698 5.59061 16.8656 6.12632 16.8679 6.6665C16.9096 7.49984 16.9179 7.80817 16.9179 9.99984C16.9179 12.1915 16.9096 12.4998 16.8679 13.3332ZM10.0846 5.72484C9.23939 5.72648 8.41369 5.97861 7.71177 6.44935C7.00984 6.92009 6.4632 7.58833 6.14091 8.36963C5.81863 9.15093 5.73516 10.0102 5.90105 10.8389C6.06694 11.6677 6.47475 12.4286 7.07295 13.0257C7.67115 13.6227 8.4329 14.029 9.26194 14.1933C10.091 14.3576 10.9501 14.2724 11.7308 13.9486C12.5114 13.6248 13.1786 13.0769 13.648 12.374C14.1174 11.6712 14.3679 10.845 14.3679 9.99984C14.369 9.43742 14.2589 8.88034 14.0439 8.36063C13.8289 7.84092 13.5134 7.36884 13.1153 6.97155C12.7172 6.57425 12.2445 6.25957 11.7244 6.04561C11.2043 5.83165 10.647 5.72264 10.0846 5.72484ZM10.0846 12.7748C9.53571 12.7748 8.99919 12.6121 8.54285 12.3072C8.0865 12.0022 7.73082 11.5688 7.52079 11.0618C7.31075 10.5547 7.2558 9.99676 7.36287 9.45846C7.46995 8.92016 7.73424 8.42571 8.12233 8.03761C8.51042 7.64952 9.00488 7.38523 9.54318 7.27816C10.0815 7.17108 10.6394 7.22604 11.1465 7.43607C11.6536 7.6461 12.087 8.00178 12.3919 8.45813C12.6968 8.91447 12.8596 9.45099 12.8596 9.99984C12.8596 10.3643 12.7878 10.7251 12.6483 11.0618C12.5089 11.3985 12.3045 11.7044 12.0468 11.9621C11.7891 12.2197 11.4832 12.4241 11.1465 12.5636C10.8098 12.7031 10.449 12.7748 10.0846 12.7748Z" fill="white"/>
</g>
</svg>
