<svg width="122" height="75" viewBox="0 0 122 75" fill="none" xmlns="http://www.w3.org/2000/svg">
<path id="Vector" d="M118.068 33.0371C115.541 28.9615 112.097 25.6717 107.822 23.2452C103.547 20.8214 98.6471 19.593 93.249 19.593C87.8508 19.593 83.0338 20.8214 78.7285 23.248C74.4178 25.6717 70.9537 28.9615 68.4303 33.0343C67.7276 34.166 67.1271 35.3419 66.6236 36.562C66.6014 36.5454 66.5931 36.5371 66.5931 36.5371C66.5931 36.5371 63.9757 41.0305 59.4547 45.9859C58.6136 43.0033 57.1001 40.4605 54.9254 38.3909C51.3395 34.9766 45.1473 32.4809 36.5009 30.9869L26.0367 29.1026C22.4647 28.4469 19.9939 27.6334 18.4804 26.6097C16.8314 25.5002 15.9958 23.9701 15.9958 22.0527C15.9958 16.8842 20.3453 14.2613 28.917 14.2613C31.9633 14.2613 35.0704 14.5988 38.1582 15.2767C41.235 15.949 44.071 16.8455 46.5861 17.9439C48.8244 18.9234 50.6174 20.0191 51.9206 21.2116C53.1573 20.2681 54.253 18.9621 55.1854 17.3242C56.2534 15.4482 56.7985 13.6968 56.7985 12.1142C56.7985 9.63785 55.2933 7.52674 52.2111 5.66189C49.7264 4.18716 46.3149 2.98911 42.0761 2.10926C37.793 1.21833 33.2969 0.767334 28.7095 0.767334C19.7476 0.767334 12.6258 2.7816 7.55138 6.74926C2.53785 10.6671 -0.00488281 16.1704 -0.00488281 23.0986C-0.00488281 34.1411 7.3826 40.8368 22.5892 43.5649L33.0424 45.4464C36.7555 46.1021 39.348 46.946 40.9721 48.0445C42.7263 49.2287 43.6117 50.8971 43.6117 53.0165C43.6117 55.7363 42.433 57.7284 40.0978 58.9348C37.9258 60.0581 34.6084 60.6032 29.9601 60.6032C27.196 60.6032 24.0612 60.2795 20.6441 59.6459C17.2326 59.0123 13.9871 58.1545 10.9906 57.0976C9.05378 56.4142 7.36877 55.7086 5.95491 54.9837C4.32247 57.6648 2.38014 62.3242 0.0476873 67.7278C0.888809 68.1816 1.87104 68.6354 2.98885 69.0863C5.44581 70.0741 8.28459 70.9955 11.4084 71.82C14.5349 72.6417 17.7527 73.3086 20.9872 73.7872C24.2161 74.2687 27.1628 74.5121 29.7498 74.5121C36.9491 74.5121 43.0196 73.3777 47.8644 71.1227C47.8644 71.1227 47.8865 71.1144 47.9308 71.0978C48.8493 70.7243 59.0258 66.4385 67.0497 58.0411C67.4536 58.9182 67.9129 59.7704 68.4248 60.6004C70.9482 64.7064 74.4123 68.0156 78.723 70.4421C83.0282 72.8659 87.9117 74.0943 93.2434 74.0943C98.5751 74.0943 103.542 72.8659 107.816 70.4421C112.091 68.0156 115.539 64.7064 118.062 60.6004C120.577 56.5138 121.85 51.8821 121.85 46.8409C121.85 41.7997 120.577 37.0905 118.062 33.0343M102.689 56.8154C100.224 59.4688 97.0478 60.8135 93.249 60.8135C89.4501 60.8135 86.2765 59.4688 83.8085 56.8154C81.3598 54.1786 80.1175 50.8279 80.1175 46.8464C80.1175 42.8649 81.3598 39.5143 83.8085 36.8775C86.2737 34.2296 89.4501 32.8794 93.249 32.8794C97.0478 32.8794 100.221 34.2268 102.689 36.8775C105.138 39.5143 106.38 42.8649 106.38 46.8464C106.38 50.8279 105.138 54.1813 102.689 56.8154Z" fill="white"/>
</svg>
