<svg width="50" height="50" viewBox="0 0 50 50" fill="none" xmlns="http://www.w3.org/2000/svg">
<path id="Vector" d="M42.9382 5.4529C38.3342 1.96667 32.0092 0.201416 24.1375 0.201416C19.5169 0.201416 15.22 0.793526 11.3713 1.96114C7.61667 3.10108 4.84706 4.64497 3.13991 6.5458C2.31539 7.43395 1.73437 8.38575 1.35531 9.45376C0.973486 10.5328 0.779785 11.5898 0.779785 12.5914C0.779785 14.5088 1.44385 16.1329 2.80791 17.5606C3.95615 18.7642 5.29806 19.6247 6.9139 20.1891L7.3317 20.3358L7.58622 19.9733C9.08862 17.8373 11.0171 16.1136 13.3192 14.8491C15.9947 13.3799 19.0963 12.6329 22.541 12.6329C25.9858 12.6329 28.9767 13.4048 31.0795 14.9211C33.2985 16.5231 34.4219 18.8555 34.4219 21.852C34.4219 24.0931 33.6582 26.1794 32.1475 28.0442C30.6977 29.8371 28.357 31.6549 25.0036 33.5917C21.2157 35.689 18.6149 37.8499 17.2702 40.0136C15.9338 42.1634 15.2587 44.8998 15.2587 48.1481V49.4679H30.1001L30.1997 49.0059C30.4736 47.7276 31.0906 46.5572 32.0369 45.5224C33.2238 44.2247 34.7899 42.8967 36.6935 41.5796C40.3485 39.0286 43.1541 36.5578 45.0328 34.2364C46.8783 31.9538 48.1344 29.7043 48.7652 27.5489C49.4072 25.3548 49.7309 23.1524 49.7309 20.9998C49.7309 13.9997 47.5091 8.91422 42.9382 5.45013" fill="white"/>
</svg>
