<svg width="298" height="75" viewBox="0 0 298 75" fill="none" xmlns="http://www.w3.org/2000/svg">
<path d="M291.234 48.9959C295.639 45.9275 297.603 42.2642 297.603 37.1178C297.603 33.7174 296.632 30.7707 294.634 28.1062C292.634 25.439 289.848 23.303 286.351 21.7535C282.82 20.193 278.747 19.4017 274.246 19.4017C268.859 19.4017 263.992 20.5887 259.783 22.9322C255.58 25.2702 252.23 28.5323 249.828 32.63C248.843 34.3067 248.068 36.1107 247.482 38.0171C245.772 37.5882 243.921 37.0404 242.026 36.3487C241.887 33.2719 240.93 30.5659 239.084 28.1062C237.084 25.439 234.298 23.303 230.803 21.7535C227.273 20.193 223.2 19.4017 218.698 19.4017C213.311 19.4017 208.444 20.5887 204.236 22.9322C202.017 24.1662 200.042 25.6658 198.312 27.4034C191.644 25.8125 184.774 24.786 177.945 24.1884V20.893C177.945 17.891 178.828 15.506 180.574 13.8044C182.309 12.1083 184.744 11.2478 187.804 11.2478C189.754 11.2478 191.713 11.5522 193.625 12.1498C195.081 12.6063 196.248 13.1376 197.192 13.7712L197.526 13.9981L197.856 13.7656C198.636 13.215 199.261 12.5344 199.773 11.6877C200.487 10.5063 200.836 9.26951 200.836 7.90545C200.836 5.76391 199.837 4.13424 197.778 2.91959C196.533 2.20021 194.737 1.56107 192.444 1.01877C190.125 0.473702 187.524 0.197017 184.716 0.197017C177.677 0.197017 172.249 2.02313 168.58 5.6228C164.919 9.21694 163.063 14.5708 163.063 21.5322V23.4966C154.458 23.4302 146.215 23.9006 138.858 24.6034V20.893C138.858 17.891 139.741 15.5088 141.487 13.8044C143.224 12.1083 145.656 11.2478 148.716 11.2478C150.667 11.2478 152.626 11.5522 154.538 12.1498C155.993 12.6063 157.161 13.1376 158.104 13.7712L158.439 13.9981L158.768 13.7656C159.546 13.215 160.174 12.5344 160.686 11.6877C161.4 10.5063 161.748 9.27227 161.748 7.90545C161.748 5.76391 160.749 4.13424 158.694 2.91959C157.449 2.20021 155.656 1.56107 153.359 1.01877C151.041 0.473702 148.44 0.197017 145.634 0.197017C138.593 0.197017 133.164 2.02313 129.498 5.6228C125.837 9.21694 123.981 14.5708 123.981 21.5322V26.4433C118.591 27.2623 114.336 28.0785 111.643 28.6374C109.707 26.6176 107.471 24.8745 104.942 23.4385C100.629 20.9926 95.676 19.7531 90.2225 19.7531C84.7691 19.7531 79.9022 20.9954 75.5527 23.4413C71.2004 25.8872 67.7031 29.2129 65.1549 33.3245C62.6177 37.4194 61.3311 42.1065 61.3311 47.2611C61.3311 49.3224 61.5524 51.309 61.973 53.2237C57.1642 56.8178 50.4629 58.7906 49.5499 59.0479C46.4455 59.925 43.2082 60.3677 39.9295 60.3677C32.7745 60.3677 27.0111 58.3091 22.8027 54.2502C18.5833 50.1801 16.4418 44.5883 16.4418 37.6269C16.4418 32.9205 17.3825 28.7675 19.2363 25.2785C21.1011 21.7729 23.749 18.9922 27.1135 17.0111C30.4724 15.0356 34.3543 14.034 38.6512 14.034C42.4778 14.034 46.1577 14.7811 49.5831 16.2558C52.5187 17.5202 55.1057 19.2191 57.2721 21.3053L57.6457 21.665L58.0468 21.3357C59.3251 20.2954 60.4485 19.0309 61.3892 17.5839C62.5762 15.755 63.1766 13.9372 63.1766 12.183C63.1766 10.2075 62.4849 8.55289 61.0599 7.12797C59.5326 5.60343 57.5018 4.28642 55.0227 3.21288C52.4827 2.11721 49.6854 1.30098 46.7083 0.789118C43.7007 0.26895 40.7374 0.00610352 37.9042 0.00610352C30.4005 0.00610352 23.7269 1.60534 18.0659 4.75955C12.4215 7.90822 7.96413 12.3296 4.82099 17.9021C1.66678 23.4883 0.0703125 30.126 0.0703125 37.6297C0.0703125 45.1334 1.66678 51.6272 4.81822 57.136C7.96136 62.6365 12.4298 66.9694 18.1046 70.0074C23.8016 73.062 30.572 74.6114 38.2251 74.6114C41.5371 74.6114 44.8739 74.3126 48.1388 73.7232C51.3898 73.1339 54.4693 72.2762 57.297 71.175C59.0125 70.5054 63.8074 68.4967 68.334 65.3701C70.3815 67.6168 72.7942 69.5315 75.5527 71.0809C79.9022 73.5268 84.8382 74.7691 90.2225 74.7691C95.6068 74.7691 100.629 73.5296 104.942 71.0837C109.261 68.635 112.742 65.2926 115.29 61.1479C117.827 57.0198 119.117 52.3493 119.117 47.2611C119.117 44.8927 118.832 42.6239 118.292 40.4657C119.941 40.1641 121.848 39.8349 123.984 39.4946V74.6114H138.864V37.5716C146.174 36.8384 154.455 36.3293 163.068 36.3902V74.6114H177.951V37.1151C182.547 37.5467 187.137 38.1914 191.628 39.0989C190.988 41.5393 190.662 44.1456 190.662 46.9069C190.662 52.3632 191.832 57.2079 194.137 61.3112C196.434 65.4033 199.673 68.6433 203.766 70.9398C207.869 73.2473 212.716 74.4149 218.17 74.4149C220.857 74.4149 223.695 74.1687 226.606 73.6845C229.525 73.1975 232.314 72.5141 234.898 71.6509C236.763 71.0311 238.387 70.356 239.721 69.6449L240.224 69.3765L235.25 59.4242L234.743 59.64C234.088 59.9194 233.302 60.2044 232.405 60.4922C230.695 61.0372 228.872 61.4799 226.985 61.8064C225.087 62.1357 223.374 62.3017 221.897 62.3017C217.824 62.3017 214.388 61.5768 211.682 60.1491C209.02 58.7463 207.321 56.5992 206.621 53.766C208.176 54.1201 211.574 54.7565 215.887 54.7565C223.427 54.7565 230.275 52.7616 235.687 48.9931C236.088 48.7137 236.464 48.4259 236.827 48.1354C240.258 49.4441 243.57 50.3544 246.442 50.9853C246.887 54.8035 247.969 58.2649 249.684 61.3139C251.981 65.4061 255.221 68.6461 259.313 70.9426C263.419 73.2501 268.264 74.4177 273.717 74.4177C276.404 74.4177 279.245 74.1715 282.156 73.6873C285.072 73.2003 287.864 72.5169 290.448 71.6536C292.313 71.0339 293.934 70.3587 295.271 69.6477L295.774 69.3793L290.8 59.4269L290.293 59.6427C289.638 59.9222 288.852 60.2072 287.955 60.4949C286.245 61.04 284.422 61.4827 282.535 61.8092C280.637 62.1384 278.924 62.3045 277.447 62.3045C273.377 62.3045 269.94 61.5795 267.234 60.1518C264.573 58.7491 262.874 56.602 262.174 53.7687C263.729 54.1229 267.124 54.7593 271.44 54.7593C278.98 54.7593 285.828 52.7644 291.24 48.9959M99.9923 57.5593C97.4412 60.3068 94.1542 61.6985 90.2225 61.6985C86.2908 61.6985 83.0038 60.3068 80.4528 57.5593C77.9211 54.8367 76.6401 51.3726 76.6401 47.2611C76.6401 43.1496 77.9239 39.6882 80.4528 36.9657C83.0066 34.2182 86.2936 32.8265 90.2225 32.8265C94.1515 32.8265 97.4357 34.2209 99.9923 36.9657C102.524 39.6882 103.808 43.1523 103.808 47.2611C103.808 51.3699 102.524 54.8367 99.9923 57.5565M223.347 42.5741C221.709 43.1911 219.401 43.5009 216.49 43.5009C212.003 43.5009 207.346 42.7456 205.866 42.4855C205.974 39.0629 207.213 36.1799 209.557 33.9083C212 31.5426 215.041 30.3418 218.593 30.3418C221.227 30.3418 223.413 30.9284 225.09 32.0849C226.872 33.3162 227.812 35.0178 227.812 37.0072C227.812 38.7779 227.038 41.1823 223.347 42.5713M261.416 42.4855C261.521 39.0629 262.763 36.1799 265.107 33.9083C267.55 31.5426 270.591 30.3418 274.143 30.3418C276.777 30.3418 278.963 30.9284 280.64 32.0849C282.422 33.3162 283.362 35.0178 283.362 37.0072C283.362 38.7779 282.588 41.1823 278.897 42.5713C277.259 43.1883 274.951 43.4982 272.04 43.4982C267.553 43.4982 262.896 42.7428 261.416 42.4827" fill="white"/>
</svg>
