<svg width="24" height="25" viewBox="0 0 24 25" fill="none" xmlns="http://www.w3.org/2000/svg">
<g id="whatsapp_symbol.svg" clip-path="url(#clip0_798_582)">
<path id="Vector" fill-rule="evenodd" clip-rule="evenodd" d="M20.4562 4.15004C18.2129 1.90382 15.2292 0.666179 12.0502 0.665039C5.49962 0.665039 0.168404 5.99569 0.166124 12.548C0.164985 14.6427 0.71258 16.6872 1.7525 18.489L0.0664062 24.6475L6.36631 22.9951C8.10196 23.9421 10.0564 24.4407 12.0451 24.4413H12.0502C18.5997 24.4413 23.9316 19.11 23.9338 12.5577C23.9349 9.38214 22.7001 6.39684 20.4562 4.15061V4.15004ZM12.0502 22.4344H12.0463C10.2741 22.4338 8.53562 21.9574 7.01878 21.0577L6.65807 20.8435L2.91949 21.8241L3.91724 18.1789L3.68247 17.8051C2.69384 16.2325 2.17131 14.4147 2.17245 12.5486C2.17473 7.10285 6.60564 2.67194 12.0543 2.67194C14.6925 2.67308 17.1724 3.7016 19.0373 5.5689C20.9024 7.43562 21.9286 9.91777 21.9275 12.5566C21.9252 18.0029 17.4943 22.4338 12.0502 22.4338V22.4344ZM17.4681 15.037C17.1712 14.8883 15.7114 14.1703 15.4389 14.0712C15.1666 13.972 14.9689 13.9225 14.7711 14.2199C14.5734 14.5173 14.0042 15.1863 13.8309 15.384C13.6577 15.5823 13.4845 15.6068 13.1876 15.4581C12.8908 15.3093 11.934 14.996 10.7995 13.9845C9.91688 13.197 9.32079 12.225 9.14762 11.9275C8.97439 11.6301 9.12939 11.4693 9.2775 11.3218C9.41083 11.1884 9.57439 10.9748 9.72309 10.8015C9.87187 10.6283 9.92086 10.5041 10.02 10.3063C10.1192 10.108 10.0696 9.93487 9.99551 9.7861C9.92139 9.63739 9.32769 8.17578 9.0798 7.58148C8.83874 7.00256 8.59377 7.08119 8.41198 7.07151C8.23874 7.06295 8.04104 7.06125 7.84274 7.06125C7.64444 7.06125 7.32303 7.13533 7.05067 7.43277C6.77832 7.73019 6.01132 8.44873 6.01132 9.90975C6.01132 11.3708 7.0752 12.7834 7.22391 12.9817C7.37262 13.18 9.31794 16.1789 12.2964 17.4656C13.0047 17.7715 13.558 17.9545 13.9893 18.0912C14.7005 18.3174 15.3478 18.2855 15.8595 18.2092C16.4299 18.1237 17.6162 17.4906 17.8635 16.7971C18.1108 16.1037 18.1108 15.5088 18.0368 15.3851C17.9627 15.2615 17.7644 15.1868 17.4675 15.0381L17.4681 15.037Z" fill="#25D366"/>
</g>
<defs>
<clipPath id="clip0_798_582">
<rect width="23.8674" height="24" fill="white" transform="translate(0.0664062 0.665039)"/>
</clipPath>
</defs>
</svg>
